<mxfile host="app.diagrams.net" modified="2022-05-21T08:06:27.314Z" agent="5.0 (Windows NT 10.0; Win64; x64) AppleWebKit/537.36 (KHTML, like Gecko) Chrome/101.0.4951.64 Safari/537.36 Edg/101.0.1210.53" etag="JPjwTEfCWFzSpsxexVUS" version="18.1.1" type="github">
  <diagram id="eMgkAyy5G1e6cz8pdyqD" name="Page-1">
    <mxGraphModel dx="1550" dy="905" grid="1" gridSize="10" guides="1" tooltips="1" connect="1" arrows="1" fold="1" page="1" pageScale="1" pageWidth="5000" pageHeight="5000" math="0" shadow="0">
      <root>
        <mxCell id="0" />
        <mxCell id="1" parent="0" />
        <mxCell id="3AiErp1C6alfISHL7ssP-1" value="" style="rounded=0;whiteSpace=wrap;html=1;" vertex="1" parent="1">
          <mxGeometry x="270" y="160" width="290" height="650" as="geometry" />
        </mxCell>
        <mxCell id="3AiErp1C6alfISHL7ssP-2" value="&lt;font style=&quot;font-size: 20px;&quot;&gt;Activity.java&lt;/font&gt;" style="text;html=1;strokeColor=none;fillColor=none;align=center;verticalAlign=middle;whiteSpace=wrap;rounded=0;" vertex="1" parent="1">
          <mxGeometry x="385" y="180" width="60" height="30" as="geometry" />
        </mxCell>
        <mxCell id="3AiErp1C6alfISHL7ssP-13" style="edgeStyle=orthogonalEdgeStyle;rounded=0;orthogonalLoop=1;jettySize=auto;html=1;fontSize=20;endArrow=classic;endFill=1;" edge="1" parent="1" source="3AiErp1C6alfISHL7ssP-3" target="3AiErp1C6alfISHL7ssP-6">
          <mxGeometry relative="1" as="geometry" />
        </mxCell>
        <mxCell id="3AiErp1C6alfISHL7ssP-3" value="mWindow=PhoneWindow" style="rounded=1;whiteSpace=wrap;html=1;fontSize=20;" vertex="1" parent="1">
          <mxGeometry x="290" y="690" width="250" height="70" as="geometry" />
        </mxCell>
        <mxCell id="3AiErp1C6alfISHL7ssP-10" style="edgeStyle=orthogonalEdgeStyle;rounded=0;orthogonalLoop=1;jettySize=auto;html=1;entryX=0.5;entryY=1;entryDx=0;entryDy=0;fontSize=20;dashed=1;endArrow=block;endFill=0;" edge="1" parent="1" source="3AiErp1C6alfISHL7ssP-6" target="3AiErp1C6alfISHL7ssP-8">
          <mxGeometry relative="1" as="geometry" />
        </mxCell>
        <mxCell id="3AiErp1C6alfISHL7ssP-6" value="" style="rounded=0;whiteSpace=wrap;html=1;" vertex="1" parent="1">
          <mxGeometry x="680" y="280" width="290" height="530" as="geometry" />
        </mxCell>
        <mxCell id="3AiErp1C6alfISHL7ssP-7" value="&lt;font style=&quot;font-size: 20px;&quot;&gt;PhoneWindow&lt;/font&gt;" style="text;html=1;strokeColor=none;fillColor=none;align=center;verticalAlign=middle;whiteSpace=wrap;rounded=0;" vertex="1" parent="1">
          <mxGeometry x="795" y="300" width="60" height="30" as="geometry" />
        </mxCell>
        <mxCell id="3AiErp1C6alfISHL7ssP-8" value="" style="rounded=0;whiteSpace=wrap;html=1;fontSize=20;" vertex="1" parent="1">
          <mxGeometry x="680" y="160" width="290" height="70" as="geometry" />
        </mxCell>
        <mxCell id="3AiErp1C6alfISHL7ssP-9" value="Window" style="text;html=1;strokeColor=none;fillColor=none;align=center;verticalAlign=middle;whiteSpace=wrap;rounded=0;fontSize=20;" vertex="1" parent="1">
          <mxGeometry x="795" y="180" width="60" height="30" as="geometry" />
        </mxCell>
        <mxCell id="3AiErp1C6alfISHL7ssP-19" style="edgeStyle=orthogonalEdgeStyle;rounded=0;orthogonalLoop=1;jettySize=auto;html=1;entryX=0;entryY=0.5;entryDx=0;entryDy=0;fontSize=20;endArrow=classic;endFill=1;" edge="1" parent="1" source="3AiErp1C6alfISHL7ssP-11" target="3AiErp1C6alfISHL7ssP-15">
          <mxGeometry relative="1" as="geometry" />
        </mxCell>
        <mxCell id="3AiErp1C6alfISHL7ssP-11" value="&lt;span style=&quot;color: rgb(51, 51, 51); font-family: -apple-system, &amp;quot;SF UI Text&amp;quot;, Arial, &amp;quot;PingFang SC&amp;quot;, &amp;quot;Hiragino Sans GB&amp;quot;, &amp;quot;Microsoft YaHei&amp;quot;, &amp;quot;WenQuanYi Micro Hei&amp;quot;, sans-serif, SimHei, SimSun; text-align: left; background-color: rgb(255, 255, 255);&quot;&gt;&lt;font style=&quot;font-size: 20px;&quot;&gt;WindowManagerImpl&lt;/font&gt;&lt;/span&gt;" style="rounded=1;whiteSpace=wrap;html=1;fontSize=20;" vertex="1" parent="1">
          <mxGeometry x="715" y="370" width="220" height="60" as="geometry" />
        </mxCell>
        <mxCell id="3AiErp1C6alfISHL7ssP-15" value="" style="rounded=0;whiteSpace=wrap;html=1;" vertex="1" parent="1">
          <mxGeometry x="1060" y="280" width="290" height="530" as="geometry" />
        </mxCell>
        <mxCell id="3AiErp1C6alfISHL7ssP-16" value="WindowManager" style="rounded=0;whiteSpace=wrap;html=1;fontSize=20;" vertex="1" parent="1">
          <mxGeometry x="1060" y="160" width="290" height="70" as="geometry" />
        </mxCell>
        <mxCell id="3AiErp1C6alfISHL7ssP-17" style="edgeStyle=orthogonalEdgeStyle;rounded=0;orthogonalLoop=1;jettySize=auto;html=1;entryX=0.5;entryY=1;entryDx=0;entryDy=0;fontSize=20;dashed=1;endArrow=block;endFill=0;" edge="1" parent="1">
          <mxGeometry relative="1" as="geometry">
            <mxPoint x="1204.5" y="280" as="sourcePoint" />
            <mxPoint x="1204.5" y="230" as="targetPoint" />
            <Array as="points">
              <mxPoint x="1204.5" y="230" />
            </Array>
          </mxGeometry>
        </mxCell>
        <mxCell id="3AiErp1C6alfISHL7ssP-18" value="&lt;span style=&quot;color: rgb(51, 51, 51); font-family: -apple-system, &amp;quot;SF UI Text&amp;quot;, Arial, &amp;quot;PingFang SC&amp;quot;, &amp;quot;Hiragino Sans GB&amp;quot;, &amp;quot;Microsoft YaHei&amp;quot;, &amp;quot;WenQuanYi Micro Hei&amp;quot;, sans-serif, SimHei, SimSun; font-size: 20px; text-align: left; background-color: rgb(255, 255, 255);&quot;&gt;WindowManagerImpl&lt;/span&gt;" style="text;html=1;strokeColor=none;fillColor=none;align=center;verticalAlign=middle;whiteSpace=wrap;rounded=0;" vertex="1" parent="1">
          <mxGeometry x="1175" y="300" width="60" height="30" as="geometry" />
        </mxCell>
        <mxCell id="3AiErp1C6alfISHL7ssP-20" value="" style="rounded=1;whiteSpace=wrap;html=1;fontSize=20;" vertex="1" parent="1">
          <mxGeometry x="1095" y="360" width="220" height="230" as="geometry" />
        </mxCell>
        <mxCell id="3AiErp1C6alfISHL7ssP-21" value="&lt;span style=&quot;color: rgb(51, 51, 51); font-family: -apple-system, &amp;quot;SF UI Text&amp;quot;, Arial, &amp;quot;PingFang SC&amp;quot;, &amp;quot;Hiragino Sans GB&amp;quot;, &amp;quot;Microsoft YaHei&amp;quot;, &amp;quot;WenQuanYi Micro Hei&amp;quot;, sans-serif, SimHei, SimSun; text-align: left; background-color: rgb(255, 255, 255);&quot;&gt;WindowManagerGlobal&lt;/span&gt;" style="text;html=1;strokeColor=none;fillColor=none;align=center;verticalAlign=middle;whiteSpace=wrap;rounded=0;fontSize=20;" vertex="1" parent="1">
          <mxGeometry x="1175" y="385" width="60" height="30" as="geometry" />
        </mxCell>
        <mxCell id="3AiErp1C6alfISHL7ssP-25" style="edgeStyle=orthogonalEdgeStyle;rounded=0;orthogonalLoop=1;jettySize=auto;html=1;entryX=0.007;entryY=0.435;entryDx=0;entryDy=0;entryPerimeter=0;fontSize=20;endArrow=classic;endFill=1;startArrow=classic;startFill=1;" edge="1" parent="1" source="3AiErp1C6alfISHL7ssP-23" target="3AiErp1C6alfISHL7ssP-24">
          <mxGeometry relative="1" as="geometry" />
        </mxCell>
        <mxCell id="3AiErp1C6alfISHL7ssP-23" value="WMS Session" style="ellipse;whiteSpace=wrap;html=1;fontSize=20;" vertex="1" parent="1">
          <mxGeometry x="1120" y="470" width="170" height="80" as="geometry" />
        </mxCell>
        <mxCell id="3AiErp1C6alfISHL7ssP-24" value="" style="rounded=0;whiteSpace=wrap;html=1;" vertex="1" parent="1">
          <mxGeometry x="1550" y="280" width="290" height="530" as="geometry" />
        </mxCell>
        <mxCell id="3AiErp1C6alfISHL7ssP-26" value="Binder" style="ellipse;whiteSpace=wrap;html=1;aspect=fixed;fontSize=20;" vertex="1" parent="1">
          <mxGeometry x="1400" y="470" width="80" height="80" as="geometry" />
        </mxCell>
        <mxCell id="3AiErp1C6alfISHL7ssP-27" value="&lt;div style=&quot;text-align: left;&quot;&gt;&lt;font face=&quot;-apple-system, SF UI Text, Arial, PingFang SC, Hiragino Sans GB, Microsoft YaHei, WenQuanYi Micro Hei, sans-serif, SimHei, SimSun&quot; color=&quot;#333333&quot;&gt;&lt;span style=&quot;font-size: 20px; background-color: rgb(255, 255, 255);&quot;&gt;WindowManagerService&lt;/span&gt;&lt;/font&gt;&lt;/div&gt;" style="text;html=1;strokeColor=none;fillColor=none;align=center;verticalAlign=middle;whiteSpace=wrap;rounded=0;" vertex="1" parent="1">
          <mxGeometry x="1665" y="310" width="60" height="30" as="geometry" />
        </mxCell>
        <mxCell id="3AiErp1C6alfISHL7ssP-32" value="" style="rounded=0;whiteSpace=wrap;html=1;fontSize=20;" vertex="1" parent="1">
          <mxGeometry x="680" y="1080" width="290" height="600" as="geometry" />
        </mxCell>
        <mxCell id="3AiErp1C6alfISHL7ssP-36" value="" style="rounded=0;whiteSpace=wrap;html=1;fontSize=20;" vertex="1" parent="1">
          <mxGeometry x="690" y="1130" width="270" height="540" as="geometry" />
        </mxCell>
        <mxCell id="3AiErp1C6alfISHL7ssP-37" value="" style="rounded=0;whiteSpace=wrap;html=1;fontSize=20;" vertex="1" parent="1">
          <mxGeometry x="700" y="1180" width="250" height="480" as="geometry" />
        </mxCell>
        <mxCell id="3AiErp1C6alfISHL7ssP-38" value="" style="rounded=0;whiteSpace=wrap;html=1;fontSize=20;" vertex="1" parent="1">
          <mxGeometry x="710" y="1240" width="230" height="60" as="geometry" />
        </mxCell>
        <mxCell id="3AiErp1C6alfISHL7ssP-39" value="" style="rounded=0;whiteSpace=wrap;html=1;fontSize=20;" vertex="1" parent="1">
          <mxGeometry x="710" y="1310" width="230" height="340" as="geometry" />
        </mxCell>
        <mxCell id="3AiErp1C6alfISHL7ssP-40" value="Activity" style="text;html=1;strokeColor=none;fillColor=none;align=center;verticalAlign=middle;whiteSpace=wrap;rounded=0;fontSize=20;" vertex="1" parent="1">
          <mxGeometry x="795" y="1090" width="60" height="30" as="geometry" />
        </mxCell>
        <mxCell id="3AiErp1C6alfISHL7ssP-41" value="PhoneWindow" style="text;html=1;strokeColor=none;fillColor=none;align=center;verticalAlign=middle;whiteSpace=wrap;rounded=0;fontSize=20;" vertex="1" parent="1">
          <mxGeometry x="795" y="1140" width="60" height="30" as="geometry" />
        </mxCell>
        <mxCell id="3AiErp1C6alfISHL7ssP-44" value="DecorView" style="text;html=1;strokeColor=none;fillColor=none;align=center;verticalAlign=middle;whiteSpace=wrap;rounded=0;fontSize=20;" vertex="1" parent="1">
          <mxGeometry x="795" y="1190" width="60" height="30" as="geometry" />
        </mxCell>
        <mxCell id="3AiErp1C6alfISHL7ssP-45" value="ActionBarView" style="text;html=1;strokeColor=none;fillColor=none;align=center;verticalAlign=middle;whiteSpace=wrap;rounded=0;fontSize=20;" vertex="1" parent="1">
          <mxGeometry x="795" y="1250" width="60" height="30" as="geometry" />
        </mxCell>
        <mxCell id="3AiErp1C6alfISHL7ssP-46" value="APP ContentView" style="text;html=1;strokeColor=none;fillColor=none;align=center;verticalAlign=middle;whiteSpace=wrap;rounded=0;fontSize=20;" vertex="1" parent="1">
          <mxGeometry x="722.5" y="1330" width="212.5" height="20" as="geometry" />
        </mxCell>
        <mxCell id="3AiErp1C6alfISHL7ssP-51" style="edgeStyle=orthogonalEdgeStyle;rounded=0;orthogonalLoop=1;jettySize=auto;html=1;fontSize=20;startArrow=none;startFill=0;endArrow=classic;endFill=1;" edge="1" parent="1" source="3AiErp1C6alfISHL7ssP-47" target="3AiErp1C6alfISHL7ssP-48">
          <mxGeometry relative="1" as="geometry" />
        </mxCell>
        <mxCell id="3AiErp1C6alfISHL7ssP-52" style="edgeStyle=orthogonalEdgeStyle;rounded=0;orthogonalLoop=1;jettySize=auto;html=1;exitX=0.5;exitY=1;exitDx=0;exitDy=0;entryX=0.5;entryY=0;entryDx=0;entryDy=0;fontSize=20;startArrow=none;startFill=0;endArrow=classic;endFill=1;" edge="1" parent="1" source="3AiErp1C6alfISHL7ssP-47" target="3AiErp1C6alfISHL7ssP-49">
          <mxGeometry relative="1" as="geometry" />
        </mxCell>
        <mxCell id="3AiErp1C6alfISHL7ssP-47" value="ViewGroup" style="rounded=1;whiteSpace=wrap;html=1;fontSize=20;" vertex="1" parent="1">
          <mxGeometry x="765" y="1370" width="120" height="60" as="geometry" />
        </mxCell>
        <mxCell id="3AiErp1C6alfISHL7ssP-54" style="edgeStyle=orthogonalEdgeStyle;rounded=0;orthogonalLoop=1;jettySize=auto;html=1;entryX=0.5;entryY=0;entryDx=0;entryDy=0;fontSize=20;startArrow=none;startFill=0;endArrow=classic;endFill=1;" edge="1" parent="1" source="3AiErp1C6alfISHL7ssP-48" target="3AiErp1C6alfISHL7ssP-50">
          <mxGeometry relative="1" as="geometry" />
        </mxCell>
        <mxCell id="3AiErp1C6alfISHL7ssP-48" value="ViewGroup" style="rounded=1;whiteSpace=wrap;html=1;fontSize=20;" vertex="1" parent="1">
          <mxGeometry x="730" y="1470" width="120" height="60" as="geometry" />
        </mxCell>
        <mxCell id="3AiErp1C6alfISHL7ssP-49" value="View" style="rounded=1;whiteSpace=wrap;html=1;fontSize=20;" vertex="1" parent="1">
          <mxGeometry x="855" y="1470" width="70" height="60" as="geometry" />
        </mxCell>
        <mxCell id="3AiErp1C6alfISHL7ssP-50" value="View" style="rounded=1;whiteSpace=wrap;html=1;fontSize=20;" vertex="1" parent="1">
          <mxGeometry x="750" y="1570" width="80" height="60" as="geometry" />
        </mxCell>
        <mxCell id="3AiErp1C6alfISHL7ssP-57" style="edgeStyle=orthogonalEdgeStyle;rounded=0;orthogonalLoop=1;jettySize=auto;html=1;entryX=0.5;entryY=0;entryDx=0;entryDy=0;fontSize=20;startArrow=none;startFill=0;endArrow=classic;endFill=1;dashed=1;" edge="1" parent="1" source="3AiErp1C6alfISHL7ssP-55" target="3AiErp1C6alfISHL7ssP-37">
          <mxGeometry relative="1" as="geometry" />
        </mxCell>
        <mxCell id="3AiErp1C6alfISHL7ssP-55" value="&lt;span style=&quot;color: rgb(51, 51, 51); font-family: -apple-system, &amp;quot;SF UI Text&amp;quot;, Arial, &amp;quot;PingFang SC&amp;quot;, &amp;quot;Hiragino Sans GB&amp;quot;, &amp;quot;Microsoft YaHei&amp;quot;, &amp;quot;WenQuanYi Micro Hei&amp;quot;, sans-serif, SimHei, SimSun; text-align: left; background-color: rgb(255, 255, 255);&quot;&gt;&lt;font style=&quot;font-size: 20px;&quot;&gt;DecorView&lt;/font&gt;&lt;/span&gt;" style="rounded=1;whiteSpace=wrap;html=1;fontSize=20;" vertex="1" parent="1">
          <mxGeometry x="715" y="700" width="220" height="60" as="geometry" />
        </mxCell>
        <mxCell id="3AiErp1C6alfISHL7ssP-56" value="" style="endArrow=classic;html=1;rounded=0;fontSize=20;exitX=0.5;exitY=1;exitDx=0;exitDy=0;entryX=0;entryY=0;entryDx=0;entryDy=0;dashed=1;" edge="1" parent="1" source="3AiErp1C6alfISHL7ssP-3" target="3AiErp1C6alfISHL7ssP-36">
          <mxGeometry width="50" height="50" relative="1" as="geometry">
            <mxPoint x="1010" y="650" as="sourcePoint" />
            <mxPoint x="1060" y="600" as="targetPoint" />
          </mxGeometry>
        </mxCell>
      </root>
    </mxGraphModel>
  </diagram>
</mxfile>
